# xmcd
#
# Track frame offsets:
#	150
#	11367
#	20691
#	30307
#	38367
#	46876
#
# Disc length: 744 seconds
#
# Revision: 0
# Processed by: cddbd v1.5.2PL0 Copyright (c) Steve Scherf et al.
# Submitted via: dBpowerAMP V4.0
#
DISCID=3302e606
DTITLE=elvis presley - jailhouse rock ost
DYEAR=1900
DGENRE=
TTITLE0=jailhouse rock
TTITLE1=young and beautiful
TTITLE2=i want to be free
TTITLE3=don`t leave me now
TTITLE4=baby i don`t care
TTITLE5=treat me nice
EXTD=elvis presley jailhouse rock ost\n
EXTT0=
EXTT1=
EXTT2=
EXTT3=
EXTT4=
EXTT5=
PLAYORDER=
